# xmcd
# 
# Track frame offsets:
#     150
#     15727
#     32277
#     49278
#     67421
#     84439
#     102450
#     119018
#     139441
#     156857
#     171841
#     188224
#     205182
#     221671
#     239049
#     255344
#     270312
#     282550
#     301989
#     319727
# 
# Disc length: 4468
# 
# Revision: 11
# Processed by: cddbd v1.5.2PL0 Copyright (c) Steve Scherf et al.
# Submitted via: fre:ac v1.0.31
# 
DISCID=31117214
DTITLE=Now That's What I Call Music - Now That's What I Call Music, Vol. 23
DYEAR=2006
DGENRE=Rock/Pop
TTITLE0=London Bridge
TTITLE1=Promiscuous
TTITLE2=Buttons
TTITLE3=SexyBack
TTITLE4=Ain't No Other Man
TTITLE5=Déjà Vu
TTITLE6=Do It To It
TTITLE7=Bossy
TTITLE8=Pullin' Me Back
TTITLE9=S.E.X.
TTITLE10=Sexy Love
TTITLE11=Unfaithful
TTITLE12=Too Little Too Late
TTITLE13=I Can't Hate You Anymore
TTITLE14=These Walls
TTITLE15=A Public Affair
TTITLE16=Here It Goes Again
TTITLE17=Lips Of An Angel
TTITLE18=Far Away
TTITLE19=Summertime
EXTD=
EXTT0=
EXTT1=
EXTT2=
EXTT3=
EXTT4=
EXTT5=
EXTT6=
EXTT7=
EXTT8=
EXTT9=
EXTT10=
EXTT11=
EXTT12=
EXTT13=
EXTT14=
EXTT15=
EXTT16=
EXTT17=
EXTT18=
EXTT19=
PLAYORDER=
